HIERARCHY
ROOT newVegas:Hips
{
	OFFSET 0.000000 96.479958 0.000000
	CHANNELS 6 Xposition Yposition Zposition Xrotation Yrotation Zrotation
	JOINT newVegas:Pelvis
	{
		OFFSET 0.000000 0.000000 0.000000
		CHANNELS 3 Xrotation Yrotation Zrotation
		JOINT newVegas:LeftUpLeg
		{
			OFFSET 18.735201 -5.666702 -4.541200
			CHANNELS 3 Xrotation Yrotation Zrotation
			JOINT newVegas:LeftLeg
			{
				OFFSET -0.021200 -31.938179 0.493100
				CHANNELS 3 Xrotation Yrotation Zrotation
				JOINT newVegas:LeftFoot
				{
					OFFSET 0.021200 -31.938179 -4.336299
					CHANNELS 3 Xrotation Yrotation Zrotation
					JOINT newVegas:LeftToeBase
					{
						OFFSET 0.943001 -26.722000 15.023500
						CHANNELS 3 Xrotation Yrotation Zrotation
						End Site
						{
							OFFSET 0.000000 30.670183 0.000000
						}
					}
				}
				JOINT newVegas:Left_PantLeg
				{
					OFFSET 0.663870 -9.044666 -1.108900
					CHANNELS 3 Xrotation Yrotation Zrotation
					End Site
					{
						OFFSET 1.415995 20.635357 0.000000
					}
				}
			}
		}
		JOINT newVegas:RightUpLeg
		{
			OFFSET -18.735201 -5.666702 -4.541200
			CHANNELS 3 Xrotation Yrotation Zrotation
			JOINT newVegas:RightLeg
			{
				OFFSET 0.018946 -31.938133 0.493100
				CHANNELS 3 Xrotation Yrotation Zrotation
				JOINT newVegas:RightFoot
				{
					OFFSET -0.018946 -31.938126 -4.336299
					CHANNELS 3 Xrotation Yrotation Zrotation
					JOINT newVegas:RightToeBase
					{
						OFFSET -0.943001 -26.722004 15.023500
						CHANNELS 3 Xrotation Yrotation Zrotation
						End Site
						{
							OFFSET 0.000000 30.670187 0.000000
						}
					}
				}
				JOINT newVegas:Right_PantLeg
				{
					OFFSET -0.661674 -9.044716 -1.108900
					CHANNELS 3 Xrotation Yrotation Zrotation
					End Site
					{
						OFFSET -1.415958 20.635269 0.000000
					}
				}
			}
		}
	}
	JOINT newVegas:Spine
	{
		OFFSET 0.000000 10.199997 -0.299500
		CHANNELS 3 Xrotation Yrotation Zrotation
		JOINT newVegas:Spine1
		{
			OFFSET 0.000000 11.900002 -1.516600
			CHANNELS 3 Xrotation Yrotation Zrotation
			JOINT newVegas:Spine2
			{
				OFFSET 0.000000 13.600006 -2.842500
				CHANNELS 3 Xrotation Yrotation Zrotation
				JOINT newVegas:Neck
				{
					OFFSET 0.000000 9.624100 -2.890100
					CHANNELS 3 Xrotation Yrotation Zrotation
					JOINT newVegas:Head
					{
						OFFSET 0.000000 14.068802 -1.351900
						CHANNELS 3 Xrotation Yrotation Zrotation
						JOINT newVegas:Hair_Back
						{
							OFFSET 0.000000 3.231903 -17.524799
							CHANNELS 3 Xrotation Yrotation Zrotation
							End Site
							{
								OFFSET 0.000000 19.849884 0.000000
							}
						}
						JOINT newVegas:Hair_Front
						{
							OFFSET 0.000000 31.260406 4.573800
							CHANNELS 3 Xrotation Yrotation Zrotation
							JOINT newVegas:Hair_Front1
							{
								OFFSET 0.000000 2.284103 11.993300
								CHANNELS 3 Xrotation Yrotation Zrotation
								JOINT newVegas:Hair_Front2
								{
									OFFSET 0.000000 2.284103 11.993300
									CHANNELS 3 Xrotation Yrotation Zrotation
									End Site
									{
										OFFSET 0.000000 12.208862 0.000000
									}
								}
							}
						}
						JOINT newVegas:Jowel
						{
							OFFSET 0.000000 -7.458206 6.864100
							CHANNELS 3 Xrotation Yrotation Zrotation
							End Site
							{
								OFFSET 0.000000 19.849884 0.000000
							}
						}
					}
				}
				JOINT newVegas:LeftShoulder
				{
					OFFSET 15.263000 10.923401 -0.547700
					CHANNELS 3 Xrotation Yrotation Zrotation
					JOINT newVegas:LeftArm
					{
						OFFSET 25.438599 -2.830597 -13.032500
						CHANNELS 3 Xrotation Yrotation Zrotation
						JOINT newVegas:LeftForeArm
						{
							OFFSET 29.960503 0.000000 0.000000
							CHANNELS 3 Xrotation Yrotation Zrotation
							JOINT newVegas:LeftHand
							{
								OFFSET 27.849251 0.000000 0.000000
								CHANNELS 3 Xrotation Yrotation Zrotation
								JOINT newVegas:LeftHandThumb1
								{
									OFFSET 4.487587 -3.305161 6.305391
									CHANNELS 3 Xrotation Yrotation Zrotation
									JOINT newVegas:LeftHandThumb2
									{
										OFFSET 5.480453 -3.164139 3.164143
										CHANNELS 3 Xrotation Yrotation Zrotation
										JOINT newVegas:LeftHandThumb3
										{
											OFFSET 5.159721 -2.978973 2.978967
											CHANNELS 3 Xrotation Yrotation Zrotation
											End Site
											{
												OFFSET 2.494507 5.926697 1.738678
											}
										}
									}
								}
								JOINT newVegas:LeftHandIndex1
								{
									OFFSET 18.578728 -0.527832 5.208049
									CHANNELS 3 Xrotation Yrotation Zrotation
									JOINT newVegas:LeftHandIndex2
									{
										OFFSET 3.192009 0.000000 0.000000
										CHANNELS 3 Xrotation Yrotation Zrotation
										JOINT newVegas:LeftHandIndex3
										{
											OFFSET 3.835129 0.000000 0.000000
											CHANNELS 3 Xrotation Yrotation Zrotation
											End Site
											{
												OFFSET -0.034599 3.816971 0.371180
											}
										}
									}
								}
								JOINT newVegas:LeftHandMiddle1
								{
									OFFSET 18.476105 0.000000 0.000000
									CHANNELS 3 Xrotation Yrotation Zrotation
									JOINT newVegas:LeftHandMiddle2
									{
										OFFSET 3.324875 0.000000 0.000000
										CHANNELS 3 Xrotation Yrotation Zrotation
										JOINT newVegas:LeftHandMiddle3
										{
											OFFSET 4.596550 0.000000 0.000000
											CHANNELS 3 Xrotation Yrotation Zrotation
											End Site
											{
												OFFSET 0.057701 4.578827 0.399218
											}
										}
									}
								}
								JOINT newVegas:LeftHandRing1
								{
									OFFSET 17.732719 0.121887 -4.201567
									CHANNELS 3 Xrotation Yrotation Zrotation
									JOINT newVegas:LeftHandRing2
									{
										OFFSET 2.733170 0.000000 0.000000
										CHANNELS 3 Xrotation Yrotation Zrotation
										JOINT newVegas:LeftHandRing3
										{
											OFFSET 3.178268 0.000000 0.000000
											CHANNELS 3 Xrotation Yrotation Zrotation
											End Site
											{
												OFFSET 0.119102 3.170624 0.185394
											}
										}
									}
								}
								JOINT newVegas:LeftHandPinky1
								{
									OFFSET 15.989624 -0.606689 -7.535461
									CHANNELS 3 Xrotation Yrotation Zrotation
									JOINT newVegas:LeftHandPinky2
									{
										OFFSET 2.538986 0.000000 0.000000
										CHANNELS 3 Xrotation Yrotation Zrotation
										JOINT newVegas:LeftHandPinky3
										{
											OFFSET 2.593102 0.000000 0.000000
											CHANNELS 3 Xrotation Yrotation Zrotation
											End Site
											{
												OFFSET -0.150902 2.584198 0.152708
											}
										}
									}
								}
							}
							JOINT newVegas:Left_Sleeve
							{
								OFFSET 0.267448 -0.649796 0.577675
								CHANNELS 3 Xrotation Yrotation Zrotation
								End Site
								{
									OFFSET 0.000000 15.991241 0.000000
								}
							}
							JOINT newVegas:Left_CapeC
							{
								OFFSET 15.715958 -8.608795 -6.935905
								CHANNELS 3 Xrotation Yrotation Zrotation
								JOINT newVegas:Left_CapeC1
								{
									OFFSET 0.000000 -8.688499 0.000000
									CHANNELS 3 Xrotation Yrotation Zrotation
									End Site
									{
										OFFSET 0.000000 8.688499 0.000000
									}
								}
							}
						}
						JOINT newVegas:Left_CapeB
						{
							OFFSET 26.118385 -8.608795 -7.079235
							CHANNELS 3 Xrotation Yrotation Zrotation
							JOINT newVegas:Left_CapeB1
							{
								OFFSET 0.000000 -8.688499 0.000000
								CHANNELS 3 Xrotation Yrotation Zrotation
								End Site
								{
									OFFSET 0.000000 8.688499 0.000000
								}
							}
						}
						JOINT newVegas:Left_CapeA
						{
							OFFSET 5.115639 -8.608795 -10.395809
							CHANNELS 3 Xrotation Yrotation Zrotation
							JOINT newVegas:Left_CapeA1
							{
								OFFSET 0.000000 -8.688499 0.000000
								CHANNELS 3 Xrotation Yrotation Zrotation
								End Site
								{
									OFFSET 0.000000 8.688499 0.000000
								}
							}
						}
					}
				}
				JOINT newVegas:RightShoulder
				{
					OFFSET -15.263000 10.923401 -0.547700
					CHANNELS 3 Xrotation Yrotation Zrotation
					JOINT newVegas:RightArm
					{
						OFFSET -25.438599 -2.830597 -13.032500
						CHANNELS 3 Xrotation Yrotation Zrotation
						JOINT newVegas:RightForeArm
						{
							OFFSET -29.960503 0.000000 0.000000
							CHANNELS 3 Xrotation Yrotation Zrotation
							JOINT newVegas:RightHand
							{
								OFFSET -27.849251 0.000000 0.000000
								CHANNELS 3 Xrotation Yrotation Zrotation
								JOINT newVegas:RightHandThumb1
								{
									OFFSET -4.487587 -3.305161 6.305391
									CHANNELS 3 Xrotation Yrotation Zrotation
									JOINT newVegas:RightHandThumb2
									{
										OFFSET -5.480453 -3.164139 3.164143
										CHANNELS 3 Xrotation Yrotation Zrotation
										JOINT newVegas:RightHandThumb3
										{
											OFFSET -5.159721 -2.978973 2.978967
											CHANNELS 3 Xrotation Yrotation Zrotation
											End Site
											{
												OFFSET -2.494507 5.926697 1.738678
											}
										}
									}
								}
								JOINT newVegas:RightHandIndex1
								{
									OFFSET -18.578728 -0.527832 5.208049
									CHANNELS 3 Xrotation Yrotation Zrotation
									JOINT newVegas:RightHandIndex2
									{
										OFFSET -3.192009 0.000000 0.000000
										CHANNELS 3 Xrotation Yrotation Zrotation
										JOINT newVegas:RightHandIndex3
										{
											OFFSET -3.835129 0.000000 0.000000
											CHANNELS 3 Xrotation Yrotation Zrotation
											End Site
											{
												OFFSET 0.034599 3.816971 0.371180
											}
										}
									}
								}
								JOINT newVegas:RightHandMiddle1
								{
									OFFSET -18.476105 0.000000 0.000000
									CHANNELS 3 Xrotation Yrotation Zrotation
									JOINT newVegas:RightHandMiddle2
									{
										OFFSET -3.324875 0.000000 0.000000
										CHANNELS 3 Xrotation Yrotation Zrotation
										JOINT newVegas:RightHandMiddle3
										{
											OFFSET -4.596550 0.000000 0.000000
											CHANNELS 3 Xrotation Yrotation Zrotation
											End Site
											{
												OFFSET -0.057701 4.578827 0.399218
											}
										}
									}
								}
								JOINT newVegas:RightHandRing1
								{
									OFFSET -17.732719 0.121887 -4.201567
									CHANNELS 3 Xrotation Yrotation Zrotation
									JOINT newVegas:RightHandRing2
									{
										OFFSET -2.733170 0.000000 0.000000
										CHANNELS 3 Xrotation Yrotation Zrotation
										JOINT newVegas:RightHandRing3
										{
											OFFSET -3.178268 0.000000 0.000000
											CHANNELS 3 Xrotation Yrotation Zrotation
											End Site
											{
												OFFSET -0.119102 3.170624 0.185394
											}
										}
									}
								}
								JOINT newVegas:RightHandPinky1
								{
									OFFSET -15.989624 -0.606689 -7.535461
									CHANNELS 3 Xrotation Yrotation Zrotation
									JOINT newVegas:RightHandPinky2
									{
										OFFSET -2.538986 0.000000 0.000000
										CHANNELS 3 Xrotation Yrotation Zrotation
										JOINT newVegas:RightHandPinky3
										{
											OFFSET -2.593102 0.000000 0.000000
											CHANNELS 3 Xrotation Yrotation Zrotation
											End Site
											{
												OFFSET 0.150902 2.584198 0.152708
											}
										}
									}
								}
							}
							JOINT newVegas:Right_CapeC
							{
								OFFSET -15.715958 -8.608795 -6.935905
								CHANNELS 3 Xrotation Yrotation Zrotation
								JOINT newVegas:Right_CapeC1
								{
									OFFSET 0.000000 -8.688499 0.000000
									CHANNELS 3 Xrotation Yrotation Zrotation
									End Site
									{
										OFFSET 0.000000 8.688499 0.000000
									}
								}
							}
							JOINT newVegas:Right_Sleeve
							{
								OFFSET -0.267448 -0.649994 0.577675
								CHANNELS 3 Xrotation Yrotation Zrotation
								End Site
								{
									OFFSET 0.000000 15.991302 0.000000
								}
							}
						}
						JOINT newVegas:Right_CapeA
						{
							OFFSET -5.115540 -8.608795 -10.395824
							CHANNELS 3 Xrotation Yrotation Zrotation
							JOINT newVegas:Right_CapeA1
							{
								OFFSET 0.000000 -8.688499 0.000000
								CHANNELS 3 Xrotation Yrotation Zrotation
								End Site
								{
									OFFSET 0.000000 8.688499 0.000000
								}
							}
						}
						JOINT newVegas:Right_CapeB
						{
							OFFSET -26.118187 -8.608795 -7.079266
							CHANNELS 3 Xrotation Yrotation Zrotation
							JOINT newVegas:Right_CapeB1
							{
								OFFSET 0.000000 -8.688499 0.000000
								CHANNELS 3 Xrotation Yrotation Zrotation
								End Site
								{
									OFFSET 0.000000 8.688499 0.000000
								}
							}
						}
					}
				}
				JOINT newVegas:Left_Collar
				{
					OFFSET 18.625099 8.655502 8.828100
					CHANNELS 3 Xrotation Yrotation Zrotation
					JOINT newVegas:Left_Collar1
					{
						OFFSET 14.783401 10.540405 -1.259500
						CHANNELS 3 Xrotation Yrotation Zrotation
						End Site
						{
							OFFSET 0.000000 18.199875 0.000000
						}
					}
				}
				JOINT newVegas:Collar_Back
				{
					OFFSET 0.000000 15.630707 -20.132601
					CHANNELS 3 Xrotation Yrotation Zrotation
					End Site
					{
						OFFSET 0.000000 22.523010 0.000000
					}
				}
				JOINT newVegas:Left_Peck
				{
					OFFSET 17.239599 -5.132599 25.482599
					CHANNELS 3 Xrotation Yrotation Zrotation
					End Site
					{
						OFFSET 0.000000 22.523010 0.000000
					}
				}
				JOINT newVegas:Right_Peck
				{
					OFFSET -17.239599 -5.132202 25.482599
					CHANNELS 3 Xrotation Yrotation Zrotation
					End Site
					{
						OFFSET 0.000000 22.523010 0.000000
					}
				}
				JOINT newVegas:Right_Collar
				{
					OFFSET -18.625099 8.655792 8.828100
					CHANNELS 3 Xrotation Yrotation Zrotation
					JOINT newVegas:Right_Collar1
					{
						OFFSET -14.783401 10.539993 -1.259500
						CHANNELS 3 Xrotation Yrotation Zrotation
						End Site
						{
							OFFSET 0.000000 18.199631 0.000000
						}
					}
				}
			}
		}
		JOINT newVegas:Belly
		{
			OFFSET 0.000000 -6.540398 9.014299
			CHANNELS 3 Xrotation Yrotation Zrotation
			End Site
			{
				OFFSET 0.000000 11.566666 0.000000
			}
		}
	}
	JOINT newVegas:ElvisFacialAnim_Joint
	{
		OFFSET 1.000000 -95.330101 -8.825800
		CHANNELS 3 Xrotation Yrotation Zrotation
		End Site
		{
			OFFSET 0.000000 35.315800 0.000000
		}
	}
}
MOTION
Frames: 4
Frame Time: 0.033333
0.477483 55.720352 14.436926 -17.969201 1.754320 6.632925 0.000001 0.000000 0.000000 -95.347624 1.190390 11.411089 63.473296 -4.974212 -2.602684 52.064452 -8.988925 -6.136046 0.000000 0.000000 0.000000 -0.000006 -0.000000 0.000000 -102.677476 15.492167 -9.832995 65.323226 -0.875053 2.375102 63.728602 11.508747 -0.022039 0.000000 -0.000000 0.000000 -0.000000 0.000000 0.000000 11.270184 5.729158 -0.599858 22.783716 11.927414 -2.354801 22.783727 11.927421 -2.354802 1.238979 2.697771 1.917058 1.239021 2.697767 1.917047 0.000000 -0.000002 -0.000000 1.238849 2.697608 1.917114 1.239037 2.697914 1.917047 -0.000001 -0.000003 -0.000000 0.000000 -0.000002 -0.000000 0.597158 -3.501263 18.901319 -79.672394 -77.066862 -59.621322 27.456476 -67.183421 9.625432 -81.219111 -5.434452 67.091008 -4.459836 -1.187737 -9.916312 3.615872 21.384742 -7.966248 0.000000 -0.000002 0.000000 -1.134237 11.499928 -32.084954 1.009533 0.915556 -88.373755 0.000002 0.000001 -0.000000 -4.633063 -0.682886 -81.239008 -2.807100 -4.283837 -66.262752 -0.000002 0.000001 -0.000002 -6.169443 -0.636830 -99.760309 -2.947825 -4.477034 -66.857341 -0.000000 -0.000000 -0.000002 -0.863706 -1.784883 -98.189386 -8.858479 -6.268242 -109.153328 -0.000001 -0.000002 0.000001 -0.000000 0.000002 -0.000003 -0.000000 0.000002 -0.000003 -0.000001 0.000002 -0.000003 0.000001 -0.000001 -0.000002 0.000001 -0.000002 -0.000000 0.000001 -0.000001 -0.000002 0.000001 -0.000002 -0.000002 1.059858 10.422628 -15.853429 -48.153462 27.706575 17.654494 194.311560 106.272313 -201.558855 -96.282445 -23.833231 -13.104328 -14.110034 1.619777 32.154116 10.936752 -23.798411 1.710634 0.000001 -0.000000 0.000003 -10.216644 -3.975950 85.029749 2.280370 -2.241119 72.167547 -0.000001 -0.000002 -0.000001 -10.053338 -0.277686 87.169360 -3.404033 3.542216 87.553586 -0.000004 -0.000001 0.000002 -9.301831 1.553169 99.439870 -5.335042 6.091571 80.900196 -0.000002 0.000001 -0.000002 -15.109719 4.220557 98.298040 -5.977649 9.048333 66.771192 0.000003 0.000001 0.000003 -0.000001 0.000000 -0.000001 -0.000001 -0.000001 -0.000001 -0.000001 -0.000000 -0.000001 0.000000 -0.000001 -0.000000 -0.000000 -0.000001 -0.000001 0.000000 -0.000001 -0.000000 -0.000000 -0.000001 -0.000001 -0.000000 0.000002 -0.000002 -0.000000 0.000002 -0.000002 -0.000000 0.000002 -0.000002 -0.000000 0.000002 -0.000002 -0.000000 0.000002 -0.000002 -0.000000 0.000002 -0.000002 -0.000000 0.000002 -0.000002 0.000000 -0.000000 0.000000 0.000001 0.000000 0.000000 
0.113503 55.628090 14.456991 -17.822863 2.046858 7.243592 -0.000001 0.000000 -0.000000 -95.347323 1.857861 11.835453 63.310724 -4.955202 -2.598677 51.803727 -9.214397 -6.095732 0.000000 -0.000000 -0.000000 -0.000002 0.000000 -0.000000 -103.214813 16.186396 -9.690025 65.405072 -0.858582 2.391886 64.268836 11.619158 0.275244 0.000000 0.000000 -0.000000 -0.000005 -0.000000 -0.000001 11.325751 6.069063 -0.386355 22.900671 12.725591 -2.008465 22.900678 12.725598 -2.008467 1.509695 2.682572 1.902086 1.509641 2.682567 1.902099 -0.000000 -0.000003 -0.000000 1.509718 2.682543 1.902106 1.509693 2.682613 1.902091 0.000000 -0.000001 -0.000000 -0.000000 -0.000003 -0.000000 0.433545 -2.628566 19.566168 -53.863599 -79.018930 -32.649957 18.386415 -70.881880 0.755613 -80.569553 -9.048174 66.629376 -4.459836 -1.187737 -9.916312 3.615876 21.384740 -7.966247 -0.000000 -0.000002 -0.000003 -1.878841 10.655743 -30.637910 1.011741 0.915422 -88.508583 0.000001 -0.000002 -0.000000 -4.503142 -0.675878 -79.872567 -2.761822 -4.263675 -65.655234 0.000001 -0.000001 0.000005 -6.005074 -0.681583 -97.968921 -2.901912 -4.457242 -66.268189 -0.000000 -0.000000 -0.000003 -0.846654 -1.787462 -98.190854 -8.728732 -6.312637 -107.971787 -0.000001 -0.000003 -0.000000 -0.000003 -0.000000 -0.000002 -0.000003 -0.000000 -0.000002 -0.000004 0.000000 -0.000002 -0.000000 -0.000001 0.000001 0.000000 -0.000002 0.000002 -0.000000 -0.000001 0.000001 0.000000 -0.000002 0.000002 1.205146 11.460565 -15.587767 -48.431919 27.296294 19.355721 200.931693 103.890360 -206.672003 -99.187809 -20.881963 -17.203153 -14.110030 1.619777 32.154116 10.936758 -23.798413 1.710634 0.000002 -0.000000 -0.000002 -10.216641 -3.975951 85.029749 2.280372 -2.241124 72.167547 0.000000 -0.000000 0.000002 -10.277978 -0.378884 88.277074 -3.405892 3.542305 87.583727 -0.000000 0.000001 0.000001 -9.111210 1.572060 99.710865 -5.297111 6.085399 80.542506 0.000003 0.000002 -0.000001 -15.482625 3.962362 99.492497 -5.918875 9.023531 66.397457 0.000002 0.000003 -0.000002 0.000000 0.000002 0.000002 -0.000001 0.000000 0.000003 0.000000 0.000002 0.000002 -0.000001 0.000000 0.000002 -0.000002 0.000000 0.000001 -0.000001 0.000000 0.000002 -0.000002 -0.000000 0.000001 -0.000000 0.000003 -0.000003 -0.000000 0.000003 -0.000003 -0.000000 0.000003 -0.000003 -0.000000 0.000003 -0.000003 -0.000000 0.000003 -0.000003 -0.000000 0.000003 -0.000003 -0.000000 0.000003 -0.000003 -0.000000 -0.000000 -0.000000 -0.000001 0.000000 -0.000000 
-0.209028 55.609444 14.419615 -17.736026 2.252437 7.662907 -0.000002 0.000000 -0.000000 -95.179246 2.212683 12.166858 62.988776 -4.866547 -2.588989 51.669333 -9.497801 -6.214517 0.000000 0.000000 0.000000 -0.000002 0.000001 0.000001 -103.468213 16.497513 -9.543990 65.330923 -0.763325 2.404092 64.615160 11.604472 0.405417 0.000000 -0.000000 0.000000 -0.000005 -0.000000 -0.000001 11.429382 6.267978 -0.266365 23.113017 13.194162 -1.825161 23.113019 13.194164 -1.825159 1.720048 2.653563 2.056842 1.720028 2.653563 2.056831 -0.000002 0.000003 -0.000001 1.719999 2.653531 2.056848 1.720091 2.653566 2.056837 -0.000003 0.000001 0.000001 -0.000002 0.000003 -0.000002 0.288612 -1.844552 19.415363 -35.089393 -78.584851 -13.624097 8.557300 -73.056421 -8.916157 -77.861390 -11.195873 66.984519 -4.459839 -1.187737 -9.916310 3.615871 21.384742 -7.966246 -0.000000 0.000002 -0.000004 -2.393969 9.649784 -31.345903 1.003544 0.915936 -88.013128 0.000001 0.000000 0.000001 -4.307577 -0.648727 -78.990366 -2.683567 -4.227441 -64.598283 -0.000001 0.000001 -0.000000 -5.757227 -0.728197 -96.473956 -2.782092 -4.402846 -64.717210 0.000001 -0.000002 0.000003 -0.724128 -1.805971 -98.201420 -8.649926 -6.338146 -107.258040 -0.000000 -0.000003 -0.000001 -0.000003 -0.000001 0.000001 -0.000003 -0.000001 0.000001 -0.000004 -0.000001 0.000001 0.000001 -0.000001 -0.000000 0.000001 -0.000002 -0.000001 0.000001 -0.000001 -0.000000 -0.000001 -0.000001 0.000001 1.334761 12.372590 -15.500553 -48.386587 27.098104 20.667743 209.973320 102.408120 -214.720247 -100.577261 -18.194449 -19.981165 -14.110029 1.619776 32.154116 10.936754 -23.798413 1.710636 -0.000000 -0.000002 -0.000001 -10.216641 -3.975950 85.029749 2.280373 -2.241124 72.167540 -0.000001 0.000000 0.000002 -10.710018 -0.669722 91.141621 -3.403204 3.542187 87.540110 -0.000002 -0.000000 0.000001 -8.906887 1.561772 100.613010 -5.246645 6.076827 80.065929 -0.000001 0.000001 -0.000001 -16.158833 3.276167 102.733913 -5.803521 8.973585 65.661067 0.000004 0.000001 0.000003 0.000001 0.000003 0.000000 0.000000 0.000000 0.000002 0.000001 0.000003 0.000000 0.000003 0.000001 0.000001 0.000003 0.000001 -0.000000 0.000003 0.000001 0.000001 0.000003 0.000001 -0.000001 -0.000002 -0.000004 0.000003 -0.000002 -0.000004 0.000003 -0.000002 -0.000004 0.000003 -0.000002 -0.000004 0.000003 -0.000002 -0.000004 0.000003 -0.000002 -0.000004 0.000003 -0.000002 -0.000004 0.000003 0.000000 0.000001 -0.000000 -0.000002 0.000000 -0.000000 
-0.510795 55.611618 14.318451 -17.816991 2.164923 7.760180 -0.000000 -0.000000 -0.000000 -94.922595 2.079159 12.615530 62.776289 -4.695295 -2.582525 51.599053 -9.923707 -6.393276 -0.000000 -0.000000 -0.000000 0.000000 -0.000000 -0.000000 -103.380910 16.281730 -9.183434 65.074299 -0.582558 2.410149 64.766736 11.321035 0.468096 0.000000 0.000000 -0.000000 -0.000001 -0.000000 -0.000000 11.598090 6.301693 -0.290981 23.459381 13.300438 -1.897271 23.459383 13.300438 -1.897270 1.859395 2.639083 2.201369 1.859430 2.639100 2.201367 -0.000000 0.000001 -0.000002 1.859429 2.639146 2.201356 1.859368 2.639072 2.201374 -0.000002 -0.000002 0.000000 -0.000000 0.000001 -0.000002 0.184074 -1.212636 18.767063 -32.147542 -76.361481 -11.020568 2.923920 -74.856087 -14.763693 -73.398217 -10.391658 68.546392 -4.459845 -1.187734 -9.916314 3.615871 21.384745 -7.966249 -0.000002 -0.000003 -0.000001 -2.644706 9.200533 -31.576480 0.949851 0.917765 -84.775372 0.000001 0.000002 0.000001 -4.147669 -0.626749 -77.627265 -2.406570 -4.084655 -60.777598 0.000000 0.000000 0.000001 -5.482763 -0.774087 -93.784023 -2.570222 -4.296761 -61.923861 -0.000001 -0.000001 0.000000 -0.675717 -1.813276 -98.205573 -8.588948 -6.357175 -106.707499 0.000001 -0.000005 -0.000000 0.000001 -0.000001 -0.000000 0.000001 -0.000001 -0.000000 0.000001 -0.000001 0.000000 0.000001 -0.000001 0.000001 0.000001 -0.000002 0.000000 0.000001 -0.000001 0.000001 0.000001 -0.000001 0.000001 1.374649 12.732305 -15.694856 -48.902266 27.318969 21.464807 219.216711 101.278509 -223.583101 -101.052854 -15.241729 -21.003646 -14.110028 1.619778 32.154120 10.936752 -23.798411 1.710636 0.000001 -0.000002 -0.000001 -10.216641 -3.975952 85.029749 2.280368 -2.241121 72.167547 0.000001 -0.000002 -0.000002 -11.500193 -0.697518 91.136218 -3.414080 3.542652 87.716151 -0.000006 -0.000001 -0.000001 -8.969912 1.507899 101.383510 -5.282850 6.083020 80.407801 0.000002 -0.000003 0.000000 -16.900139 2.645249 105.177639 -5.798701 8.971436 65.630120 -0.000001 0.000002 0.000000 0.000001 0.000003 0.000004 0.000000 0.000003 0.000002 0.000001 0.000003 0.000003 -0.000001 0.000000 0.000003 -0.000002 0.000000 0.000001 -0.000001 0.000000 0.000003 -0.000002 -0.000000 0.000001 0.000001 0.000003 -0.000000 0.000001 0.000003 -0.000000 0.000001 0.000003 -0.000000 0.000001 0.000003 -0.000000 0.000001 0.000003 -0.000000 0.000001 0.000003 -0.000000 0.000001 0.000003 -0.000000 -0.000000 0.000001 0.000000 -0.000000 -0.000000 -0.000000 
